<svg xmlns="http://www.w3.org/2000/svg" width="19.351" height="21.11" viewBox="0 0 19.351 21.11">
  <path id="address-book" d="M15.953,0h-8.8A4.4,4.4,0,0,0,3.132,2.639H1.88a.88.88,0,0,0,0,1.759h.88V6.157H1.88a.88.88,0,1,0,0,1.759h.88V9.676H1.88a.88.88,0,1,0,0,1.759h.88v1.759H1.88a.88.88,0,1,0,0,1.759h.88v1.759H1.88a.88.88,0,1,0,0,1.759H3.132A4.4,4.4,0,0,0,7.157,21.11h8.8a4.4,4.4,0,0,0,4.4-4.4V4.4A4.4,4.4,0,0,0,15.953,0Zm2.639,16.712a2.639,2.639,0,0,1-2.639,2.639h-8.8a2.639,2.639,0,0,1-2.639-2.639V4.4A2.639,2.639,0,0,1,7.157,1.759h8.8A2.639,2.639,0,0,1,18.592,4.4Zm-7.037-6.157A2.639,2.639,0,1,0,8.916,7.916,2.639,2.639,0,0,0,11.555,10.555Zm4.4,5.278a.88.88,0,0,1-1.759,0,2.639,2.639,0,0,0-5.278,0,.88.88,0,0,1-1.759,0A4.4,4.4,0,0,1,15.953,15.833Z" transform="translate(-1)" fill="#3f9a9a"/>
</svg>
