<svg xmlns="http://www.w3.org/2000/svg" width="21.11" height="19.351" viewBox="0 0 21.11 19.351">
  <path id="envelope" d="M16.712,1H4.4A4.4,4.4,0,0,0,0,5.4V15.953a4.4,4.4,0,0,0,4.4,4.4H16.712a4.4,4.4,0,0,0,4.4-4.4V5.4a4.4,4.4,0,0,0-4.4-4.4ZM4.4,2.759H16.712a2.639,2.639,0,0,1,2.445,1.66l-6.736,6.737a2.645,2.645,0,0,1-3.733,0L1.953,4.419A2.639,2.639,0,0,1,4.4,2.759ZM16.712,18.592H4.4a2.639,2.639,0,0,1-2.639-2.639V6.717L7.445,12.4a4.4,4.4,0,0,0,6.221,0l5.686-5.682v9.236A2.639,2.639,0,0,1,16.712,18.592Z" transform="translate(0 -1)" fill="#3f9a9a"/>
</svg>
