<svg id="graduation-hat" xmlns="http://www.w3.org/2000/svg" width="64.185" height="54.841" viewBox="0 0 64.185 54.841">
  <g id="Group_2" data-name="Group 2">
    <g id="Group_1" data-name="Group 1">
      <path id="Path_1" data-name="Path 1" d="M64.185,76.472a5.632,5.632,0,0,0-3.761-5.295V51.7l3.761-1.551L32.093,37.27,0,50.146,32.093,63.023l24.571-9.816v17.97a5.608,5.608,0,0,0-.539,10.37L53,90.921l3.566,1.19,1.978-5.933,1.978,5.933,3.566-1.19-3.125-9.374A5.633,5.633,0,0,0,64.185,76.472Z" transform="translate(0 -37.27)" fill="#259898"/>
    </g>
  </g>
  <g id="Group_4" data-name="Group 4" transform="translate(15.169 23.01)">
    <g id="Group_3" data-name="Group 3">
      <path id="Path_2" data-name="Path 2" d="M137.924,227.616,121,220.82v4.91c0,5.36,7.276,9.4,16.924,9.4s16.924-4.042,16.924-9.4v-4.91Z" transform="translate(-121 -220.82)" fill="#259898"/>
    </g>
  </g>
</svg>
