<svg xmlns="http://www.w3.org/2000/svg" width="12.794" height="18.284" viewBox="0 0 12.794 18.284">
  <path id="Icon_awesome-transgender" data-name="Icon awesome-transgender" d="M12.394,0H9.762a.434.434,0,0,0-.283.732l.563.6L7.353,4.217A4.543,4.543,0,0,0,4.8,3.428,4.98,4.98,0,0,0,0,8.571a5.079,5.079,0,0,0,3.732,5.014v.986h-1.2a.416.416,0,0,0-.4.429v1.428a.416.416,0,0,0,.4.429h1.2v1a.416.416,0,0,0,.4.429H5.464a.416.416,0,0,0,.4-.429v-1h1.2a.416.416,0,0,0,.4-.429V15a.416.416,0,0,0-.4-.429h-1.2v-.986A5.082,5.082,0,0,0,9.6,8.571a5.391,5.391,0,0,0-.736-2.739L11.548,2.95l.563.6a.4.4,0,0,0,.683-.3V.429a.416.416,0,0,0-.4-.429ZM4.8,11.427A2.77,2.77,0,0,1,2.132,8.571,2.77,2.77,0,0,1,4.8,5.714,2.77,2.77,0,0,1,7.463,8.571,2.77,2.77,0,0,1,4.8,11.427Z" fill="#259898"/>
</svg>
