<svg xmlns="http://www.w3.org/2000/svg" width="12.18" height="14.887" viewBox="0 0 12.18 14.887">
  <path id="Icon_awesome-birthday-cake" data-name="Icon awesome-birthday-cake" d="M12.18,11.165c-.762,0-.85-.93-2.025-.93s-1.273.93-2.032.93-.855-.93-2.032-.93-1.284.93-2.025.93c-.765,0-.848-.93-2.032-.93s-1.268.93-2.032.93V8.839a1.353,1.353,0,0,1,1.3-1.4H1.74V3.257H3.48V7.444H5.22V3.257H6.96V7.444H8.7V3.257h1.74V7.444h.435a1.353,1.353,0,0,1,1.3,1.4Zm0,3.722H0V12.1c1.179,0,1.271-.93,2.032-.93s.85.93,2.032.93c1.165,0,1.284-.93,2.025-.93.765,0,.848.93,2.032.93s1.271-.93,2.032-.93.85.93,2.025.93ZM2.61,2.791a.9.9,0,0,1-.87-.93c0-.9.87-.669.87-1.861.326,0,.87.858.87,1.628S3.093,2.791,2.61,2.791Zm3.48,0a.9.9,0,0,1-.87-.93c0-.9.87-.669.87-1.861.326,0,.87.858.87,1.628S6.573,2.791,6.09,2.791Zm3.48,0a.9.9,0,0,1-.87-.93c0-.9.87-.669.87-1.861.326,0,.87.858.87,1.628S10.053,2.791,9.57,2.791Z" fill="#259898"/>
</svg>
